<svg xmlns="http://www.w3.org/2000/svg" width="42" height="10" viewBox="0 0 42 10" fill="none">
        <path fill-rule="evenodd" clip-rule="evenodd" d="M17.695 1.32539C17.3356 1.43032 16.8829 1.75708 16.6566 2.07492C16.3276 2.5369 16.2404 2.83097 16.2337 3.50068C16.2253 4.345 16.4499 4.8902 17.1034 5.6127C17.3706 5.90802 17.5887 6.15865 17.5881 6.16955C17.5875 6.18044 17.385 6.31964 17.1382 6.47889C14.7599 8.01296 11.7465 8.37566 9.18256 7.4364C8.88373 7.32689 8.21614 7.03539 7.69903 6.78864C6.41035 6.17367 5.51653 5.81436 4.87669 5.65413C3.52347 5.31523 2.27708 5.49333 1.36594 6.15585C1.02555 6.40337 0.938173 6.54445 1.03984 6.68255C1.09593 6.75886 1.18918 6.7208 1.50388 6.49317C2.23826 5.96199 2.89889 5.78142 3.89409 5.83974C4.84016 5.89522 5.60854 6.15809 7.54522 7.08882C8.86648 7.7238 9.46964 7.941 10.4087 8.11985C11.3774 8.30436 11.7638 8.32685 12.7972 8.25875C14.5211 8.14528 16.1068 7.60065 17.5018 6.64286L17.9083 6.36381L18.2999 6.5898C19.2841 7.15783 20.291 7.43007 21.6934 7.50737C23.5717 7.61095 25.2233 7.24553 28.3811 6.02776C31.3568 4.88034 32.6229 4.49256 34.0818 4.28184C35.2779 4.10906 36.7965 4.18402 37.701 4.46036C39.6175 5.04605 40.7178 6.07171 40.6439 7.2036C40.6126 7.68265 40.4438 7.96972 40.0636 8.19086C39.8139 8.33617 39.6944 8.35916 39.314 8.33515C38.9457 8.31191 38.8112 8.26995 38.5907 8.10948C38.2745 7.8794 38.0201 7.55665 37.8508 7.17117C37.7291 6.89387 37.5578 6.80536 37.4794 6.97927C37.42 7.11089 37.6486 7.60415 37.9339 7.96024C38.2507 8.3555 38.8683 8.69213 39.3254 8.71864C40.3109 8.77577 41.1119 7.90402 40.9872 6.91029C40.8746 6.01456 40.2714 5.2985 39.0892 4.65703C38.1481 4.14643 36.7275 3.81256 35.5598 3.82757C33.6741 3.85177 32.017 4.27589 28.6129 5.60541C25.778 6.71268 24.1287 7.13061 22.3927 7.18152C20.8938 7.22546 19.5533 6.92895 18.5171 6.32422L18.1924 6.13468L18.5869 5.76173C19.6721 4.73559 20.141 3.61651 19.895 2.63999C19.7637 2.11894 19.2745 1.52163 18.8668 1.38465C18.5307 1.27167 17.9751 1.24355 17.695 1.32539ZM17.66 1.6927C17.3634 1.80272 16.9806 2.14894 16.7946 2.47528C16.6788 2.6785 16.6372 2.88249 16.6078 3.39183C16.5744 3.9695 16.5901 4.09467 16.7399 4.4506C17.0213 5.11898 17.7623 5.95483 17.9759 5.84471C18.2273 5.71506 19.0121 4.8286 19.2588 4.39577C19.4697 4.02569 19.5485 3.80012 19.5967 3.42901C19.6541 2.98661 19.6428 2.90528 19.4653 2.48479C19.2124 1.88578 18.895 1.65329 18.2937 1.62688C18.0694 1.61696 17.7843 1.64662 17.66 1.6927Z" fill="#ED546F"/>
        <path d="M17.695 1.32539L17.8351 1.80535L17.8352 1.80532L17.695 1.32539ZM16.6566 2.07492L17.0639 2.36496L17.0639 2.36493L16.6566 2.07492ZM16.2337 3.50068L15.7337 3.49571V3.49572L16.2337 3.50068ZM17.1034 5.6127L16.7326 5.94812L16.7327 5.94817L17.1034 5.6127ZM17.1382 6.47889L17.4092 6.89905V6.89905L17.1382 6.47889ZM9.18256 7.4364L9.01052 7.90587L9.01057 7.90589L9.18256 7.4364ZM7.69903 6.78864L7.48368 7.23989L7.4837 7.2399L7.69903 6.78864ZM4.87669 5.65413L4.75522 6.13915L4.75523 6.13915L4.87669 5.65413ZM1.36594 6.15585L1.07189 5.75145L1.07188 5.75146L1.36594 6.15585ZM1.03984 6.68255L1.44273 6.38643L1.44249 6.38612L1.03984 6.68255ZM1.50388 6.49317L1.21085 6.08804L1.21085 6.08804L1.50388 6.49317ZM3.89409 5.83974L3.92336 5.3406L3.92334 5.3406L3.89409 5.83974ZM7.54522 7.08882L7.76181 6.63816L7.7618 6.63816L7.54522 7.08882ZM10.4087 8.11985L10.3151 8.61102L10.4087 8.11985ZM12.7972 8.25875L12.7644 7.75983L12.7643 7.75983L12.7972 8.25875ZM17.5018 6.64286L17.2188 6.23064L17.2188 6.23066L17.5018 6.64286ZM17.9083 6.36381L18.1582 5.93075L17.8852 5.77319L17.6253 5.95159L17.9083 6.36381ZM18.2999 6.5898L18.5498 6.15675L18.5498 6.15675L18.2999 6.5898ZM21.6934 7.50737L21.721 7.00813L21.721 7.00813L21.6934 7.50737ZM28.3811 6.02776L28.2012 5.56124L28.2012 5.56125L28.3811 6.02776ZM34.0818 4.28184L34.1532 4.7767L34.1533 4.7767L34.0818 4.28184ZM37.701 4.46036L37.8471 3.98219L37.8471 3.98219L37.701 4.46036ZM40.6439 7.2036L41.1428 7.23622V7.23618L40.6439 7.2036ZM40.0636 8.19086L39.8122 7.75865L39.8122 7.7587L40.0636 8.19086ZM39.314 8.33515L39.3455 7.83614L39.3455 7.83614L39.314 8.33515ZM38.5907 8.10948L38.2964 8.51375L38.2965 8.51377L38.5907 8.10948ZM37.8508 7.17117L38.3087 6.97017L38.3086 6.97013L37.8508 7.17117ZM37.4794 6.97927L37.9352 7.18489L37.9352 7.18479L37.4794 6.97927ZM37.9339 7.96024L37.5438 8.27291L37.5438 8.27292L37.9339 7.96024ZM39.3254 8.71864L39.2965 9.2178H39.2965L39.3254 8.71864ZM40.9872 6.91029L41.4833 6.848L41.4833 6.84796L40.9872 6.91029ZM39.0892 4.65703L39.3276 4.21755L39.3276 4.21754L39.0892 4.65703ZM35.5598 3.82757L35.5662 4.32753H35.5662L35.5598 3.82757ZM28.6129 5.60541L28.431 5.13967L28.431 5.13968L28.6129 5.60541ZM22.3927 7.18152L22.4074 7.68131L22.4074 7.68131L22.3927 7.18152ZM18.5171 6.32422L18.265 6.75604L18.2651 6.75606L18.5171 6.32422ZM18.1924 6.13468L17.8489 5.77137L17.3639 6.22998L17.9403 6.5665L18.1924 6.13468ZM18.5869 5.76173L18.2433 5.39842L18.5869 5.76173ZM19.895 2.63999L19.4101 2.76214L19.4101 2.76217L19.895 2.63999ZM18.8668 1.38465L18.7075 1.8586L18.7076 1.85861L18.8668 1.38465ZM17.66 1.6927L17.4862 1.22387L17.4861 1.22392L17.66 1.6927ZM16.7946 2.47528L17.229 2.7229L17.2291 2.72281L16.7946 2.47528ZM16.6078 3.39183L17.107 3.42065L16.6078 3.39183ZM16.7399 4.4506L16.279 4.64455L16.2791 4.64462L16.7399 4.4506ZM17.9759 5.84471L18.205 6.28911L18.2051 6.28909L17.9759 5.84471ZM19.2588 4.39577L19.6932 4.64336L19.6933 4.6433L19.2588 4.39577ZM19.5967 3.42901L20.0926 3.49339L20.0926 3.49336L19.5967 3.42901ZM19.4653 2.48479L19.926 2.29038L19.9259 2.29029L19.4653 2.48479ZM18.2937 1.62688L18.2716 2.12639L18.2718 2.1264L18.2937 1.62688ZM17.5548 0.845428C17.3047 0.918463 17.0503 1.05818 16.8332 1.2149C16.6153 1.3722 16.4021 1.57033 16.2493 1.78492L17.0639 2.36493C17.1374 2.26167 17.2637 2.1375 17.4185 2.02573C17.5742 1.91337 17.7259 1.83725 17.8351 1.80535L17.5548 0.845428ZM16.2493 1.78488C16.0672 2.04058 15.9302 2.28032 15.8449 2.56772C15.7615 2.84894 15.7372 3.14433 15.7337 3.49571L16.7337 3.50566C16.7369 3.18732 16.7595 3.00081 16.8036 2.85208C16.8459 2.70953 16.917 2.57124 17.0639 2.36496L16.2493 1.78488ZM15.7337 3.49572C15.7291 3.96622 15.7895 4.38349 15.958 4.79276C16.1247 5.19747 16.3843 5.56301 16.7326 5.94812L17.4742 5.27728C17.169 4.93988 16.9896 4.67157 16.8827 4.41199C16.7777 4.15696 16.73 3.87947 16.7337 3.50564L15.7337 3.49572ZM16.7327 5.94817C16.8648 6.09416 16.9839 6.22816 17.0691 6.32604C17.112 6.3754 17.1444 6.41336 17.165 6.43827C17.1759 6.45145 17.1801 6.45682 17.18 6.45673C17.1797 6.45634 17.1785 6.45469 17.1766 6.45206C17.1749 6.44974 17.1712 6.44446 17.1664 6.43712C17.1629 6.43175 17.1522 6.41508 17.1405 6.39187C17.1348 6.38049 17.1241 6.35801 17.114 6.32817C17.1072 6.30782 17.0834 6.23595 17.0889 6.14072L18.0873 6.19837C18.0928 6.1028 18.069 6.03047 18.0619 6.00955C18.0517 5.97914 18.0406 5.95597 18.0345 5.94378C18.0221 5.91897 18.0101 5.90024 18.005 5.89237C17.9935 5.87465 17.9825 5.85995 17.9768 5.85248C17.9639 5.83544 17.949 5.81714 17.9354 5.80068C17.907 5.7663 17.8682 5.7211 17.8234 5.66953C17.7329 5.56554 17.6093 5.42656 17.4742 5.27722L16.7327 5.94817ZM17.0889 6.14072C17.0939 6.05448 17.1201 5.99041 17.1343 5.95986C17.1502 5.92562 17.1668 5.9001 17.1771 5.88534C17.1973 5.85627 17.216 5.83617 17.2235 5.82829C17.24 5.81096 17.2533 5.7998 17.2551 5.79827C17.2613 5.79303 17.2624 5.79249 17.2536 5.79905C17.2382 5.81054 17.2111 5.82981 17.1722 5.85657C17.0957 5.90914 16.9877 5.98096 16.8671 6.05872L17.4092 6.89905C17.5355 6.81756 17.6521 6.74016 17.7387 6.6806C17.7814 6.65129 17.8205 6.62376 17.8509 6.60112C17.865 6.59061 17.884 6.57616 17.9023 6.5606C17.9102 6.55391 17.9281 6.53849 17.9478 6.51784C17.9569 6.50831 17.9768 6.48678 17.9979 6.45654C18.0038 6.44799 18.0786 6.34822 18.0873 6.19837L17.0889 6.14072ZM16.8671 6.05872C14.6151 7.51143 11.7651 7.84997 9.35455 6.96691L9.01057 7.90589C11.7279 8.90135 14.9048 8.5145 17.4092 6.89905L16.8671 6.05872ZM9.35461 6.96693C9.0777 6.86545 8.42658 6.5818 7.91435 6.33738L7.4837 7.2399C8.00569 7.48898 8.68976 7.78832 9.01052 7.90587L9.35461 6.96693ZM7.91437 6.33739C6.62201 5.72066 5.6899 5.34233 4.99815 5.1691L4.75523 6.13915C5.34316 6.28638 6.19869 6.62668 7.48368 7.23989L7.91437 6.33739ZM4.99816 5.16911C3.53868 4.80359 2.13076 4.98151 1.07189 5.75145L1.65999 6.56024C2.42339 6.00515 3.50826 5.82686 4.75522 6.13915L4.99816 5.16911ZM1.07188 5.75146C0.900611 5.876 0.720148 6.02237 0.612009 6.19702C0.551167 6.29528 0.496713 6.42813 0.500153 6.58758C0.503664 6.75034 0.566158 6.88249 0.637195 6.97898L1.44249 6.38612C1.4627 6.41356 1.49798 6.47629 1.49992 6.56602C1.50178 6.65244 1.47138 6.70866 1.46223 6.72345C1.45499 6.73513 1.45892 6.72492 1.4959 6.69085C1.53095 6.65856 1.58346 6.61589 1.66 6.56024L1.07188 5.75146ZM0.636961 6.97867C0.706851 7.07376 0.827877 7.17995 1.00922 7.2103C1.16401 7.23621 1.29315 7.19361 1.36381 7.16477C1.49868 7.10972 1.64909 7.00522 1.79692 6.8983L1.21085 6.08804C1.13505 6.14287 1.07928 6.18138 1.03749 6.20806C0.992794 6.23658 0.979441 6.24156 0.98595 6.23891C0.986955 6.23849 1.06259 6.20533 1.17429 6.22402C1.23515 6.23421 1.29359 6.25773 1.34466 6.29255C1.39331 6.32572 1.42466 6.36185 1.44273 6.38643L0.636961 6.97867ZM1.79691 6.8983C2.42841 6.44154 2.97241 6.28659 3.86484 6.33888L3.92334 5.3406C2.82537 5.27625 2.04812 5.48244 1.21085 6.08804L1.79691 6.8983ZM3.86482 6.33888C4.70417 6.3881 5.39489 6.61015 7.32865 7.53948L7.7618 6.63816C5.82219 5.70602 4.97614 5.40233 3.92336 5.3406L3.86482 6.33888ZM7.32864 7.53947C8.67055 8.18438 9.31724 8.42096 10.3151 8.61102L10.5022 7.62868C9.62204 7.46104 9.06241 7.26322 7.76181 6.63816L7.32864 7.53947ZM10.3151 8.61102C11.3275 8.80385 11.7565 8.82841 12.8301 8.75767L12.7643 7.75983C11.7711 7.82528 11.4273 7.80487 10.5022 7.62868L10.3151 8.61102ZM12.8301 8.75767C14.6417 8.63843 16.3141 8.06482 17.7848 7.05506L17.2188 6.23066C15.8995 7.13648 14.4006 7.65213 12.7644 7.75983L12.8301 8.75767ZM17.7848 7.05508L18.1913 6.77603L17.6253 5.95159L17.2188 6.23064L17.7848 7.05508ZM17.6584 6.79686L18.05 7.02286L18.5498 6.15675L18.1582 5.93075L17.6584 6.79686ZM18.05 7.02286C19.1163 7.63825 20.2034 7.92599 21.6659 8.00661L21.721 7.00813C20.3787 6.93414 19.452 6.67741 18.5498 6.15675L18.05 7.02286ZM21.6659 8.00661C23.6506 8.11606 25.3817 7.72035 28.561 6.49427L28.2012 5.56125C25.065 6.7707 23.4928 7.10584 21.721 7.00813L21.6659 8.00661ZM28.561 6.49428C31.5324 5.3485 32.7539 4.97882 34.1532 4.7767L34.0103 3.78697C32.4919 4.00629 31.1812 4.41219 28.2012 5.56124L28.561 6.49428ZM34.1533 4.7767C35.296 4.61162 36.7376 4.68882 37.5549 4.93854L37.8471 3.98219C36.8555 3.67922 35.2597 3.60649 34.0103 3.78697L34.1533 4.7767ZM37.5548 4.93853C38.467 5.2173 39.1453 5.58966 39.5779 5.9929C40.006 6.39193 40.1696 6.7941 40.145 7.17101L41.1428 7.23618C41.1922 6.48121 40.8425 5.8046 40.2598 5.26141C39.6816 4.72243 38.8514 4.28912 37.8471 3.98219L37.5548 4.93853ZM40.145 7.17097C40.1326 7.3597 40.0959 7.46859 40.0535 7.54058C40.0131 7.60936 39.9465 7.68053 39.8122 7.75865L40.315 8.62307C40.5609 8.48004 40.7688 8.29711 40.9157 8.04731C41.0606 7.80071 41.1239 7.52654 41.1428 7.23622L40.145 7.17097ZM39.8122 7.7587C39.7074 7.81967 39.6716 7.83007 39.6433 7.83551C39.602 7.84347 39.532 7.84791 39.3455 7.83614L39.2826 8.83416C39.4764 8.84639 39.6564 8.85135 39.8323 8.81749C40.0213 8.78111 40.1701 8.70737 40.3151 8.62302L39.8122 7.7587ZM39.3455 7.83614C39.1694 7.82503 39.0933 7.81128 39.0458 7.79646C39.0096 7.78516 38.9705 7.76753 38.8849 7.70518L38.2965 8.51377C38.4313 8.61189 38.5698 8.69548 38.748 8.75109C38.915 8.80318 39.0903 8.82203 39.2826 8.83416L39.3455 7.83614ZM38.8849 7.7052C38.6458 7.53122 38.4452 7.28108 38.3087 6.97017L37.393 7.37216C37.595 7.83223 37.9032 8.22759 38.2964 8.51375L38.8849 7.7052ZM38.3086 6.97013C38.2329 6.79759 38.1002 6.57641 37.8784 6.46181C37.751 6.39597 37.5629 6.353 37.3645 6.43394C37.1765 6.51064 37.0747 6.66031 37.0236 6.77375L37.9352 7.18479C37.9233 7.21128 37.8723 7.30679 37.7423 7.35984C37.6019 7.41713 37.4789 7.38102 37.4193 7.35023C37.3667 7.32305 37.3491 7.29551 37.3566 7.30524C37.3612 7.31118 37.3753 7.33179 37.393 7.3722L38.3086 6.97013ZM37.0236 6.77365C36.9709 6.89053 36.9679 7.00112 36.9706 7.06557C36.9736 7.1368 36.9862 7.20342 37.0001 7.25899C37.0279 7.37045 37.0732 7.48679 37.1237 7.59579C37.2254 7.81517 37.3749 8.06214 37.5438 8.27291L38.3241 7.64757C38.2077 7.50225 38.1002 7.32455 38.0311 7.17537C37.9962 7.10009 37.9777 7.04619 37.9704 7.01701C37.9667 7.00226 37.969 7.00597 37.9697 7.02364C37.9702 7.03453 37.9731 7.10092 37.9352 7.18489L37.0236 6.77365ZM37.5438 8.27292C37.7528 8.53375 38.043 8.75608 38.3378 8.91675C38.6299 9.07594 38.9712 9.19894 39.2965 9.2178L39.3544 8.21947C39.2225 8.21183 39.0265 8.15326 38.8163 8.03869C38.6088 7.9256 38.4318 7.78199 38.3241 7.64756L37.5438 8.27292ZM39.2965 9.2178C40.603 9.29354 41.6459 8.14279 41.4833 6.848L40.491 6.97259C40.578 7.66525 40.0187 8.25799 39.3544 8.21947L39.2965 9.2178ZM41.4833 6.84796C41.3422 5.72492 40.5788 4.89642 39.3276 4.21755L38.8507 5.0965C39.9641 5.70058 40.4071 6.30419 40.4911 6.97262L41.4833 6.84796ZM39.3276 4.21754C38.3047 3.66256 36.7986 3.31161 35.5534 3.32761L35.5662 4.32753C36.6564 4.31351 37.9914 4.6303 38.8507 5.09651L39.3276 4.21754ZM35.5534 3.32761C33.5746 3.353 31.8486 3.80485 28.431 5.13967L28.7948 6.07115C32.1853 4.74693 33.7736 4.35053 35.5662 4.32753L35.5534 3.32761ZM28.431 5.13968C25.6156 6.23933 24.0291 6.63331 22.3781 6.68174L22.4074 7.68131C24.2283 7.6279 25.9405 7.18603 28.7948 6.07114L28.431 5.13968ZM22.3781 6.68174C20.9494 6.72362 19.7066 6.43948 18.7691 5.89238L18.2651 6.75606C19.4001 7.41843 20.8382 7.72731 22.4074 7.68131L22.3781 6.68174ZM18.7692 5.89241L18.4445 5.70287L17.9403 6.5665L18.265 6.75604L18.7692 5.89241ZM18.5359 6.49799L18.9304 6.12504L18.2433 5.39842L17.8489 5.77137L18.5359 6.49799ZM18.9304 6.12504C20.0774 5.04054 20.6894 3.74647 20.3798 2.51781L19.4101 2.76217C19.5926 3.48655 19.2669 4.43063 18.2433 5.39842L18.9304 6.12504ZM20.3798 2.51784C20.292 2.16919 20.0952 1.82481 19.8714 1.55149C19.6543 1.28648 19.3573 1.02199 19.0261 0.910694L18.7076 1.85861C18.784 1.88429 18.9354 1.98695 19.0977 2.1851C19.2532 2.37495 19.3667 2.58974 19.4101 2.76214L20.3798 2.51784ZM19.0261 0.910706C18.8015 0.835201 18.5302 0.794996 18.2851 0.782598C18.0465 0.770527 17.7731 0.78166 17.5547 0.845459L17.8352 1.80532C17.897 1.78728 18.0414 1.77155 18.2346 1.78132C18.4214 1.79077 18.596 1.82112 18.7075 1.8586L19.0261 0.910706ZM17.4861 1.22392C17.2569 1.30896 17.033 1.46692 16.8505 1.63202C16.6644 1.80029 16.485 2.00871 16.3602 2.22775L17.2291 2.72281C17.2902 2.61552 17.3952 2.48766 17.5212 2.37372C17.6507 2.25662 17.7666 2.18646 17.8339 2.16149L17.4861 1.22392ZM16.3603 2.22766C16.1823 2.53986 16.1384 2.84697 16.1086 3.363L17.107 3.42065C17.136 2.91801 17.1753 2.81714 17.229 2.7229L16.3603 2.22766ZM16.1086 3.363C16.0922 3.6474 16.0841 3.86666 16.109 4.06628C16.136 4.28258 16.1984 4.45289 16.279 4.64455L17.2007 4.25664C17.1316 4.09238 17.1113 4.02213 17.1013 3.94245C17.0893 3.84608 17.09 3.71392 17.107 3.42065L16.1086 3.363ZM16.2791 4.64462C16.446 5.0411 16.7356 5.4627 17.0092 5.77129C17.1459 5.92545 17.2963 6.07162 17.444 6.17585C17.5163 6.22688 17.6095 6.28338 17.7162 6.31862C17.8148 6.35116 18.0063 6.39159 18.205 6.28911L17.7468 5.40031C17.8921 5.32536 18.0138 5.36376 18.0298 5.36906C18.054 5.37705 18.0521 5.38109 18.0205 5.3588C17.9604 5.3164 17.8679 5.23248 17.7575 5.10789C17.5368 4.859 17.3152 4.52848 17.2007 4.25657L16.2791 4.64462ZM18.2051 6.28909C18.3404 6.2193 18.4839 6.09066 18.5937 5.98545C18.7189 5.86542 18.8579 5.71847 18.9935 5.56538C19.2573 5.26741 19.5434 4.90622 19.6932 4.64336L18.8244 4.14817C18.7275 4.31815 18.4979 4.6166 18.2448 4.90248C18.1218 5.04132 18.0021 5.16734 17.9017 5.26351C17.7859 5.37451 17.7371 5.40529 17.7467 5.40033L18.2051 6.28909ZM19.6933 4.6433C19.9319 4.2245 20.0349 3.93726 20.0926 3.49339L19.1009 3.36463C19.0621 3.66298 19.0075 3.82688 18.8244 4.14824L19.6933 4.6433ZM20.0926 3.49336C20.1207 3.27685 20.1426 3.08319 20.1143 2.87976C20.0862 2.67767 20.0125 2.49529 19.926 2.29038L19.0047 2.67919C19.0956 2.89477 19.1163 2.96331 19.1239 3.0176C19.1312 3.07056 19.1302 3.13877 19.1009 3.36466L20.0926 3.49336ZM19.9259 2.29029C19.7812 1.94761 19.5932 1.64833 19.3056 1.43771C19.0134 1.22376 18.6763 1.1432 18.3156 1.12736L18.2718 2.1264C18.5124 2.13697 18.6346 2.18586 18.7147 2.24451C18.7994 2.30649 18.8965 2.42296 19.0047 2.67929L19.9259 2.29029ZM18.3158 1.12737C18.1756 1.12117 18.0234 1.12736 17.8877 1.14147C17.7627 1.15446 17.6092 1.17828 17.4862 1.22387L17.8338 2.16153C17.8283 2.16355 17.8394 2.15926 17.8737 2.15272C17.9048 2.14677 17.9448 2.14092 17.9911 2.13611C18.085 2.12634 18.1875 2.12267 18.2716 2.12639L18.3158 1.12737Z" fill="#ED546F"/>
      </svg>